<svg height="496pt" viewBox="0 0 496 496" width="496pt" xmlns="http://www.w3.org/2000/svg"><path d="m40 424c-17.679688 0-32 14.320312-32 32v-272c0-17.679688 14.320312-32 32-32h296v16l-22.960938 4.160156-38.800781 7.039063c-15.199219 2.800781-26.238281 16.082031-26.238281 31.519531v117.28125h176v48h-208l-64 32 32 16zm0 0" fill="#e6e9ed"/><path d="m216 376h192v64h-192zm0 0" fill="#fcd770"/><path d="m408 376h48c8.800781 0 16.800781 3.601562 22.640625 9.359375 5.757813 5.839844 9.359375 13.839844 9.359375 22.640625 0 17.679688-14.320312 32-32 32h-48zm0 0" fill="#e6e9ed"/><path d="m216 376v64l-64-32zm0 0" fill="#ccd1d9"/><path d="m216 256c0 37.199219-28.238281 67.839844-64.398438 71.601562l-79.203124-79.203124c3.839843-36.238282 34.402343-64.398438 71.601562-64.398438 39.761719 0 72 32.238281 72 72zm0 0" fill="#ff826e"/><path d="m72.398438 248.398438 111.601562 111.601562h-144v-144zm0 0" fill="#b4dd7f"/><path d="m176 136c22.078125 0 40-17.921875 40-40s-17.921875-40-40-40-40 17.921875-40 40 17.921875 40 40 40zm63.679688-6.398438 9.839843 17.277344-5.039062 5.121094h-136.960938l-5.039062-5.121094 9.839843-17.277344c-2.082031-3.921874-3.761718-8.082031-5.121093-12.320312l-19.199219-5.28125v-32l19.199219-5.28125c1.359375-4.238281 3.039062-8.398438 5.121093-12.320312l-9.839843-17.277344 22.640625-22.640625 17.277344 9.839843c3.921874-2.082031 8.082031-3.761718 12.320312-5.121093l5.28125-19.199219h32l5.28125 19.199219c4.238281 1.359375 8.398438 3.039062 12.320312 5.121093l17.277344-9.839843 22.640625 22.640625-9.839843 17.277344c2.082031 3.921874 3.761718 8.082031 5.121093 12.320312l19.199219 5.28125v32l-19.199219 5.28125c-1.359375 4.238281-3.039062 8.398438-5.121093 12.320312zm0 0" fill="#fcd770"/><path d="m296 328h-48v-117.28125c0-15.4375 11.039062-28.71875 26.238281-31.519531l38.800781-7.039063 14.960938 59.839844 40-32 40 32 14.960938-59.839844 38.800781 7.039063c15.199219 2.800781 26.238281 16.082031 26.238281 31.519531v117.28125zm0 0" fill="#b4dd7f"/><path d="m422.960938 172.160156-14.960938 59.839844-40-32 32-32zm0 0" fill="#e6e9ed"/><path d="m368 200-40 32-14.960938-59.839844 22.960938-4.160156zm0 0" fill="#e6e9ed"/><path d="m391.679688 10.640625c-4.960938-1.679687-10.238282-2.640625-15.679688-2.640625h-16c-5.519531 0-10.800781.878906-15.679688 2.640625-18.800781 6.480469-32.320312 24.320313-32.320312 45.359375v16h112v-16c0-21.039062-13.519531-38.878906-32.320312-45.359375zm0 0" fill="#fcd770"/><path d="m384 72h-72v24c0 15.519531 6.238281 29.441406 16.398438 39.601562 2.34375 2.34375 4.859374 4.40625 7.601562 6.335938v26.0625l32 32 32-32v-26.070312c14.535156-10.136719 24-26.898438 24-45.929688v-24zm0 0" fill="#f0d0b4"/><path d="m88 424v64h-48c-8.800781 0-16.800781-3.601562-22.640625-9.359375-5.757813-5.839844-9.359375-13.839844-9.359375-22.640625 0-17.679688 14.320312-32 32-32zm0 0" fill="#ff826e"/><path d="m496 336v-125.296875c0-19.34375-13.816406-35.894531-32.839844-39.351563l-55.160156-10.023437v-15.441406c14.609375-11.742188 24-29.71875 24-49.878907v-16h16v-16.007812h-16v-8c0-30.878906-25.128906-56-56-56h-16c-30.871094 0-56 25.121094-56 56v8h-16v16h16v16c0 19.121094 8.472656 36.265625 21.808594 48h-68.71875l-8.378906-14.671875c.832031-1.808594 1.601562-3.640625 2.289062-5.480469l21-5.742187v-44.210938l-21-5.734375c-.6875-1.839844-1.457031-3.671875-2.289062-5.488281l10.808593-18.917969-31.253906-31.265625-18.929687 10.800781c-1.816407-.832031-3.640626-1.601562-5.480469-2.289062l-5.742188-21h-44.21875l-5.742187 21c-1.832032.6875-3.664063 1.457031-5.480469 2.289062l-18.929687-10.800781-31.253907 31.265625 10.808594 18.917969c-.832031 1.808594-1.601563 3.640625-2.289063 5.488281l-21.007812 5.734375v44.210938l21 5.734375c.6875 1.839844 1.457031 3.671875 2.289062 5.480468l-8.378906 14.679688h-54.910156c-22.054688 0-40 17.945312-40 40v272c0 22.054688 17.945312 40 40 40h56v-64h86.113281l32 16h241.886719c22.054688 0 40-17.945312 40-40s-17.945312-40-40-40h-24v-32zm-16-125.296875v109.296875h-32v-80h-16v80h-128v-80h-16v80h-32v-109.296875c0-11.605469 8.289062-21.535156 19.703125-23.613281l31.402344-5.714844 16.160156 64.648438 44.734375-35.777344 44.734375 35.792968 16.160156-64.648437 31.402344 5.714844c11.414063 2.0625 19.703125 12 19.703125 23.597656zm-146.695312-34.078125 22.710937 22.710938-23.289063 18.632812-9.855468-39.449219zm79.824218 1.894531-9.855468 39.449219-23.289063-18.632812 22.710937-22.710938zm-21.128906-13.832031-24 24-24-24v-9.398438c7.414062 3.015626 15.511719 4.710938 24 4.710938s16.585938-1.695312 24-4.710938zm24-108.6875v8h-22.9375l5.152344-41.230469c10.714844 7.183594 17.785156 19.390625 17.785156 33.230469zm-40-40c2.34375 0 4.617188.304688 6.847656.695312l-5.910156 47.304688h-17.875l-5.910156-47.304688c2.230468-.390624 4.503906-.695312 6.847656-.695312zm-56 40c0-13.839844 7.070312-26.046875 17.785156-33.230469l5.152344 41.230469h-22.9375zm0 40v-16h96v16c0 26.472656-21.527344 48-48 48s-48-21.527344-48-48zm-200.585938 29.839844c-1.886718-3.558594-3.429687-7.246094-4.566406-10.953125l-1.296875-4.199219-17.550781-4.792969v-19.789062l17.542969-4.792969 1.296875-4.199219c1.144531-3.699219 2.679687-7.394531 4.566406-10.960937l2.066406-3.886719-9.039062-15.832031 13.992187-13.992188 15.832031 9.03125 3.886719-2.058594c3.574219-1.894531 7.261719-3.429687 10.960938-4.566406l4.191406-1.296875 4.816406-17.550781h19.78125l4.808594 17.542969 4.191406 1.296875c3.699219 1.144531 7.386719 2.671875 10.960938 4.566406l3.886719 2.058594 15.832031-9.03125 13.992187 13.992187-9.039062 15.832031 2.066406 3.886719c1.886719 3.566407 3.429688 7.261719 4.566406 10.960938l1.296875 4.199219 17.542969 4.800781v19.789062l-17.542969 4.792969-1.296875 4.199219c-1.144531 3.707031-2.679687 7.394531-4.566406 10.953125l-2.066406 3.886718 8.136718 14.273438h-125.328124l8.144531-14.265625zm-39.414062 354.160156h-40c-13.230469 0-24-10.769531-24-24s10.769531-24 24-24h40zm144-96h176v48h-176zm-16 43.054688-38.113281-19.054688 38.113281-19.054688zm272-19.054688c0 13.230469-10.769531 24-24 24h-40v-48h40c13.230469 0 24 10.769531 24 24zm-64-40h-201.886719l-80 40 16 8h-110.113281c-9.039062 0-17.296875 3.128906-24 8.207031v-240.207031c0-13.230469 10.769531-24 24-24h288v1.328125l-55.160156 10.023437c-19.023438 3.464844-32.839844 20.007813-32.839844 39.351563v125.296875h176zm0 0"/><path d="m224 96c0-26.472656-21.527344-48-48-48s-48 21.527344-48 48 21.527344 48 48 48 48-21.527344 48-48zm-48 32c-17.648438 0-32-14.351562-32-32s14.351562-32 32-32 32 14.351562 32 32-14.351562 32-32 32zm0 0"/><path d="m32 384h96v16h-96zm0 0"/><path d="m144 176c-35.800781 0-66.289062 23.3125-76.414062 56.273438l-35.585938-35.585938v171.3125h171.3125l-35.585938-35.585938c32.953126-10.132812 56.273438-40.660156 56.273438-76.414062 0-44.113281-35.886719-80-80-80zm-96 176v-116.6875l116.6875 116.6875zm106.40625-32.910156-73.496094-73.488282c5-30.808593 31.433594-53.601562 63.089844-53.601562 35.289062 0 64 28.710938 64 64 0 31.625-22.800781 58.078125-53.59375 63.089844zm0 0"/></svg>