<?xml version="1.0" encoding="iso-8859-1"?>
<!-- Generator: Adobe Illustrator 19.0.0, SVG Export Plug-In . SVG Version: 6.00 Build 0)  -->
<svg version="1.1" id="Capa_1" xmlns="http://www.w3.org/2000/svg" xmlns:xlink="http://www.w3.org/1999/xlink" x="0px" y="0px"
	 viewBox="0 0 512 512" style="enable-background:new 0 0 512 512;" xml:space="preserve">
<rect x="218.51" y="374.69" style="fill:#9E6B57;" width="38.923" height="60.27"/>
<rect x="218.51" y="374.69" style="fill:#8C5A4B;" width="20.325" height="60.27"/>
<rect x="256" y="374.69" style="fill:#AD7B64;" width="37.485" height="60.27"/>
<path style="fill:#FFC850;" d="M376.151,192.439c0-67.323-55.37-121.714-123.056-120.117
	c-65.607,1.548-118.291,56.481-117.23,122.097c0.804,49.753,31.857,92.143,75.564,109.615c1.545,0.618,2.575,2.09,2.575,3.754
	v38.026h83.992v-37.37c0-2.018,1.206-3.854,3.076-4.612C345.093,286.005,376.151,242.855,376.151,192.439z"/>
<path style="fill:#F9B428;" d="M231.727,304.035c-43.708-17.473-74.76-59.862-75.564-109.616
	c-1.022-63.192,47.807-116.466,110.017-121.7c-4.302-0.361-8.666-0.501-13.085-0.397c-65.607,1.548-118.291,56.481-117.23,122.097
	c0.804,49.753,31.857,92.143,75.564,109.616c1.545,0.617,2.575,2.09,2.575,3.754v38.026h20.299V307.79
	C234.302,306.125,233.273,304.653,231.727,304.035z"/>
<g>
	<path style="fill:#FCE8C5;" d="M272.077,355.572c-4.204,0-7.612-3.408-7.612-7.612V227.183c0-4.204,3.408-7.612,7.612-7.612
		c4.204,0,7.612,3.408,7.612,7.612V347.96C279.689,352.164,276.281,355.572,272.077,355.572z"/>
	<path style="fill:#FCE8C5;" d="M239.922,355.572c-4.204,0-7.612-3.408-7.612-7.612V227.183c0-4.204,3.408-7.612,7.612-7.612
		s7.612,3.408,7.612,7.612V347.96C247.534,352.164,244.126,355.572,239.922,355.572z"/>
</g>
<path style="fill:#E4EAF8;" d="M293.485,434.951l-30.865,71.911c-2.94,6.85-10.3,6.85-13.24,0l-30.865-71.911H293.485
	L293.485,434.951z"/>
<path style="fill:#D8DCE5;" d="M238.839,434.951h-20.325l30.865,71.911c2.94,6.85,10.3,6.85,13.24,0l3.542-8.253L238.839,434.951z"
	/>
<path style="fill:#707487;" d="M233.525,469.924l15.854,36.939c2.94,6.85,10.3,6.85,13.24,0l15.855-36.939H233.525z"/>
<path style="fill:#5E6377;" d="M262.62,506.863l3.542-8.253l-12.312-28.686h-20.324l15.854,36.939
	C252.3,513.666,259.663,513.751,262.62,506.863z"/>
<g>
	<path style="fill:#FC932B;" d="M108.187,201.288H69.936c-4.204,0-7.612-3.408-7.612-7.612s3.408-7.612,7.612-7.612h38.251
		c4.204,0,7.612,3.408,7.612,7.612C115.799,197.88,112.391,201.288,108.187,201.288z"/>
	<path style="fill:#FC932B;" d="M442.064,201.288h-38.251c-4.204,0-7.612-3.408-7.612-7.612s3.408-7.612,7.612-7.612h38.251
		c4.204,0,7.612,3.408,7.612,7.612C449.676,197.88,446.268,201.288,442.064,201.288z"/>
	<path style="fill:#FC932B;" d="M256,53.475c-4.204,0-7.612-3.408-7.612-7.612V7.612C248.388,3.408,251.796,0,256,0
		c4.204,0,7.612,3.408,7.612,7.612v38.251C263.612,50.067,260.204,53.475,256,53.475z"/>
	<path style="fill:#FC932B;" d="M88.272,290.514c-2.102-3.641-0.854-8.296,2.786-10.398l33.126-19.125
		c3.64-2.102,8.296-0.855,10.398,2.786c2.102,3.641,0.854,8.296-2.786,10.398L98.67,293.3
		C95.029,295.402,90.374,294.155,88.272,290.514z"/>
	<path style="fill:#FC932B;" d="M377.418,123.576c-2.102-3.641-0.855-8.296,2.786-10.398l33.126-19.126
		c3.64-2.102,8.296-0.855,10.398,2.786c2.102,3.641,0.855,8.296-2.786,10.398l-33.126,19.126
		C384.176,128.464,379.52,127.217,377.418,123.576z"/>
	<path style="fill:#FC932B;" d="M326.1,72.258c-3.641-2.102-4.888-6.757-2.786-10.398l19.126-33.126
		c2.102-3.641,6.757-4.889,10.398-2.786c3.641,2.102,4.888,6.757,2.786,10.398l-19.126,33.126
		C334.396,73.113,329.741,74.361,326.1,72.258z"/>
	<path style="fill:#FC932B;" d="M175.501,69.472l-19.126-33.126c-2.102-3.641-0.855-8.296,2.786-10.398
		c3.64-2.102,8.296-0.855,10.398,2.786l19.126,33.126c2.102,3.641,0.855,8.296-2.786,10.398
		C182.259,74.36,177.604,73.113,175.501,69.472z"/>
	<path style="fill:#FC932B;" d="M413.33,293.3l-33.126-19.125c-3.64-2.102-4.888-6.757-2.786-10.398
		c2.102-3.64,6.757-4.888,10.398-2.786l33.126,19.125c3.64,2.102,4.888,6.757,2.786,10.398S416.971,295.403,413.33,293.3z"/>
	<path style="fill:#FC932B;" d="M124.184,126.362l-33.126-19.126c-3.641-2.102-4.888-6.757-2.786-10.398
		c2.102-3.641,6.757-4.889,10.398-2.786l33.126,19.126c3.641,2.102,4.888,6.757,2.786,10.398
		C132.48,127.216,127.825,128.464,124.184,126.362z"/>
</g>
<path style="fill:#008CFF;" d="M302.875,341.398h-93.75c-5.907,0-10.74,4.833-10.74,10.74v13.604c0,5.907,4.833,10.74,10.74,10.74
	h93.75c5.907,0,10.74-4.833,10.74-10.74v-13.604C313.615,346.231,308.782,341.398,302.875,341.398z"/>
<path style="fill:#FC932B;" d="M282.639,198.441H229.36c-5.921,0-10.766,4.845-10.766,10.766v13.638
	c0,5.921,4.844,10.766,10.766,10.766h53.279c5.921,0,10.766-4.845,10.766-10.766v-13.638
	C293.405,203.286,288.561,198.441,282.639,198.441z"/>
<path style="fill:#0385DD;" d="M302.875,356.183h-93.75c-4.738,0-8.779-3.113-10.195-7.393c-0.349,1.055-0.545,2.179-0.545,3.347
	v13.604c0,5.907,4.833,10.74,10.74,10.74h93.75c5.907,0,10.74-4.833,10.74-10.74v-13.604c0-1.169-0.195-2.292-0.545-3.347
	C311.654,353.07,307.613,356.183,302.875,356.183z"/>
<path style="fill:#E87B18;" d="M282.639,213.312H229.36c-4.759,0-8.817-3.132-10.229-7.435c-0.345,1.051-0.537,2.168-0.537,3.33
	v13.638c0,5.921,4.844,10.766,10.766,10.766h53.279c5.921,0,10.766-4.845,10.766-10.766v-13.638c0-1.162-0.192-2.28-0.537-3.33
	C291.457,210.179,287.399,213.312,282.639,213.312z"/>
<g>
</g>
<g>
</g>
<g>
</g>
<g>
</g>
<g>
</g>
<g>
</g>
<g>
</g>
<g>
</g>
<g>
</g>
<g>
</g>
<g>
</g>
<g>
</g>
<g>
</g>
<g>
</g>
<g>
</g>
</svg>
