<svg height="480pt" viewBox="0 -4 480 479" width="480pt" xmlns="http://www.w3.org/2000/svg"><path d="m471.351562 469.671875c-1.222656.011719-2.433593-.261719-3.535156-.800781l-36.617187-18.175782c-19.15625-9.363281-31.277344-28.859374-31.199219-50.183593v-6.335938c-.019531-14.351562-7.710938-27.597656-20.167969-34.726562l-58.398437-36.800781c-2.527344-1.394532-4.105469-4.042969-4.132813-6.925782-.027343-2.882812 1.5-5.558594 3.996094-7.003906 2.496094-1.441406 5.578125-1.429688 8.0625.035156l58.402344 36.796875c17.4375 9.988281 28.207031 28.53125 28.238281 48.625v6.335938c-.058594 15.226562 8.585938 29.148437 22.257812 35.847656l36.652344 18.144531c3.371094 1.632813 5.15625 5.378906 4.304688 9.023438-.855469 3.644531-4.121094 6.210937-7.863282 6.175781zm0 0" fill="#a7a9ac"/><path d="m322.105469 289.792969 3.871093-3.871094c6.027344-6.027344 6.273438-15.71875.558594-22.042969l-140.191406-155.101562-67.878906 67.878906 155.136718 140.191406c6.320313 5.710938 16.011719 5.464844 22.039063-.558594l26.511719-26.511718zm0 0" fill="#a97c50"/><path d="m311.601562 300.3125-16 16c-6.023437 6-15.683593 6.246094-22 .558594l-155.121093-140.238282 16-16 155.121093 140.238282c6.316407 5.6875 15.976563 5.441406 22-.558594zm0 0" fill="#987048"/><path d="m326 285.910156-14.398438 14.402344 10.476563-10.558594zm0 0" fill="#a97c50"/><path d="m89.382812 160.480469-10.519531 10.519531 22.625 22.625 101.824219-101.824219-22.625-22.625-50.910156 50.914063zm0 0" fill="#ffcd00"/><path d="m89.382812 160.480469 40.394532-40.390625 40.390625-40.394532c-.441407-43.972656-36.289063-79.34375-80.265625-79.195312-43.972656.148438-79.582032 35.757812-79.730469 79.730469-.148437 43.976562 35.226563 79.824219 79.195313 80.265625zm0 0" fill="#1e81ce"/><path d="m105.359375 144.472656-16 16c-32.207031-.328125-61.074219-19.9375-73.25-49.753906-12.175781-29.820312-5.28125-64.03125 17.492187-86.808594 2.660157-2.691406 5.523438-5.175781 8.558594-7.4375-18.097656 24.125-21.089844 56.378906-7.734375 83.421875 13.351563 27.042969 40.777344 44.277344 70.933594 44.578125zm0 0" fill="#1b74b9"/><path d="m89.382812 160.480469 40.394532-40.390625zm0 0" fill="#ffcd00"/><path d="m333.425781 301.105469-11.320312-11.3125-11.3125 11.3125-11.3125 11.308593 11.3125 11.320313c6.25 6.25 16.382812 6.25 22.632812 0 6.246094-6.25 6.246094-16.378906 0-22.628906zm0 0" fill="#ffcd00"/><path d="m322.105469 289.792969-11.3125 11.3125zm0 0" fill="#ffcd00"/><path d="m78.878906 80.472656c1.472656 1.503906 3.496094 2.339844 5.601563 2.320313 1.066406.023437 2.128906-.167969 3.121093-.5625 1.921876-.855469 3.460938-2.394531 4.320313-4.320313.390625-.992187.582031-2.050781.558594-3.117187.019531-2.105469-.816407-4.128907-2.320313-5.601563-.730468-.746094-1.601562-1.34375-2.558594-1.757812-1.480468-.554688-3.078124-.71875-4.640624-.480469-.480469.160156-1.039063.320313-1.519532.480469-.480468.160156-.960937.476562-1.363281.71875-.847656.636718-1.601563 1.390625-2.238281 2.238281-.238282.402344-.480469.882813-.71875 1.363281-.242188.476563-.320313 1.039063-.480469 1.519532-.066406.503906-.09375 1.011718-.082031 1.519531-.023438 1.066406.167968 2.125.5625 3.117187.414062.960938 1.011718 1.828125 1.757812 2.5625zm0 0" fill="#9bc9ff"/><path d="m61.921875 86.152344c-2.351563 2.253906-3.054687 5.730468-1.761719 8.71875.386719.976562.988282 1.851562 1.761719 2.5625 1.484375 1.539062 3.535156 2.40625 5.679687 2.398437 1.042969-.019531 2.074219-.238281 3.039063-.640625.972656-.386718 1.847656-.988281 2.558594-1.757812.746093-.734375 1.34375-1.601563 1.761719-2.5625 1.167968-3 .480468-6.40625-1.761719-8.71875-3.160157-3-8.117188-3-11.277344 0zm0 0" fill="#9bc9ff"/><path d="m56.238281 103.113281c-1.476562-1.53125-3.511719-2.390625-5.636719-2.390625-2.128906 0-4.164062.859375-5.640624 2.390625-.792969.722657-1.394532 1.628907-1.761719 2.640625-.410157.960938-.625 1.992188-.640625 3.039063.023437 2.132812.886718 4.175781 2.402344 5.679687 1.507812 1.449219 3.507812 2.277344 5.597656 2.320313 2.121094-.015625 4.15625-.847657 5.679687-2.320313 1.492188-1.515625 2.328125-3.554687 2.320313-5.679687.015625-1.042969-.171875-2.074219-.558594-3.039063-.394531-.996094-.996094-1.894531-1.761719-2.640625zm0 0" fill="#9bc9ff"/><path d="m40.238281 119.113281c-1.476562-1.53125-3.511719-2.390625-5.636719-2.390625-2.128906 0-4.164062.859375-5.640624 2.390625-.792969.722657-1.394532 1.628907-1.761719 2.640625-.410157.960938-.625 1.992188-.640625 3.039063.023437 2.132812.886718 4.175781 2.402344 5.679687 1.507812 1.449219 3.507812 2.277344 5.597656 2.320313 2.121094-.015625 4.15625-.847657 5.679687-2.320313 1.492188-1.515625 2.328125-3.554687 2.320313-5.679687.015625-1.042969-.171875-2.074219-.558594-3.039063-.394531-.996094-.996094-1.894531-1.761719-2.640625zm0 0" fill="#8cb5e5"/><g fill="#9bc9ff"><path d="m84.480469 116.792969c1.070312-.011719 2.128906-.230469 3.121093-.640625.953126-.386719 1.824219-.957032 2.558594-1.679688 1.492188-1.515625 2.324219-3.554687 2.320313-5.679687.015625-1.042969-.175781-2.074219-.558594-3.039063-.398437-.996094-.996094-1.894531-1.761719-2.640625-1.480468-1.53125-3.515625-2.390625-5.640625-2.390625s-4.160156.859375-5.640625 2.390625c-.765625.746094-1.363281 1.644531-1.757812 2.640625-.410156.960938-.628906 1.992188-.640625 3.039063.03125 4.40625 3.59375 7.96875 8 8zm0 0"/><path d="m73.199219 120.070312c-3.175781-2.960937-8.101563-2.960937-11.277344 0-.792969.726563-1.394531 1.632813-1.761719 2.640626-.410156.960937-.628906 1.996093-.640625 3.042968-.019531 3.25 1.929688 6.1875 4.933594 7.433594 3 1.246094 6.457031.550781 8.746094-1.753906 1.492187-1.515625 2.328125-3.554688 2.320312-5.679688.015625-1.042968-.175781-2.074218-.558593-3.042968-.394532-.992188-.996094-1.890626-1.761719-2.640626zm0 0"/><path d="m101.519531 65.832031c1.039063.015625 2.074219-.175781 3.039063-.558593.960937-.417969 1.828125-1.015626 2.5625-1.761719.769531-.710938 1.371094-1.585938 1.757812-2.558594.402344-.964844.621094-1.996094.640625-3.042969.007813-2.140625-.859375-4.191406-2.398437-5.679687-.710938-.769531-1.585938-1.371094-2.5625-1.757813-2.996094-1.1875-6.414063-.496094-8.71875 1.757813-1.519532 1.496093-2.355469 3.550781-2.320313 5.679687 0 2.117188.847657 4.144532 2.347657 5.628906 1.503906 1.488282 3.539062 2.3125 5.652343 2.292969zm0 0"/><path d="m115.441406 48.3125c.964844.386719 2 .574219 3.039063.558594 2.125.007812 4.167969-.828125 5.679687-2.320313 1.472656-1.523437 2.304688-3.558593 2.320313-5.679687-.042969-2.089844-.871094-4.089844-2.320313-5.597656-2.3125-2.246094-5.71875-2.933594-8.71875-1.761719-1.011718.367187-1.914062.96875-2.640625 1.761719-.746093.730468-1.34375 1.601562-1.761719 2.558593-.382812.964844-.574218 2-.558593 3.039063-.039063 2.132812.800781 4.183594 2.320312 5.679687.746094.765625 1.644531 1.367188 2.640625 1.761719zm0 0"/><path d="m131.441406 32.3125c.964844.386719 2 .574219 3.039063.558594 2.125.007812 4.167969-.828125 5.679687-2.320313 1.472656-1.523437 2.304688-3.558593 2.320313-5.679687-.042969-2.089844-.871094-4.089844-2.320313-5.597656-2.3125-2.246094-5.71875-2.933594-8.71875-1.761719-1.011718.367187-1.914062.96875-2.640625 1.761719-.746093.730468-1.34375 1.601562-1.761719 2.558593-.382812.964844-.574218 2-.558593 3.039063-.039063 2.132812.800781 4.183594 2.320312 5.679687.746094.765625 1.644531 1.367188 2.640625 1.761719zm0 0"/><path d="m56.238281 35.191406c-2.316406-2.234375-5.734375-2.894531-8.71875-1.679687-2.007812.726562-3.59375 2.308593-4.320312 4.320312-.410157.960938-.625 1.996094-.640625 3.039063.015625 2.121094.847656 4.15625 2.320312 5.679687.796875.707031 1.683594 1.296875 2.640625 1.761719.96875.386719 2 .574219 3.039063.558594.539062.027344 1.078125-.027344 1.601562-.160156.488282-.09375.972656-.230469 1.441406-.398438.496094-.238281.976563-.503906 1.4375-.800781.421876-.296875.820313-.617188 1.199219-.960938.347657-.378906.667969-.78125.960938-1.199219.296875-.460937.566406-.941406.800781-1.441406.171875-.46875.304688-.949218.398438-1.4375.132812-.523437.1875-1.0625.160156-1.601562.015625-1.039063-.171875-2.074219-.558594-3.039063-.464844-.957031-1.054688-1.84375-1.761719-2.640625zm0 0"/><path d="m73.199219 18.230469-1.199219-.957031c-.878906-.574219-1.855469-.980469-2.878906-1.203126-1.558594-.320312-3.179688-.152343-4.640625.480469-.957031.390625-1.824219.960938-2.558594 1.679688-1.5 1.515625-2.359375 3.550781-2.402344 5.679687.015625.539063.066407 1.074219.160157 1.601563l.480468 1.441406c.207032.496094.449219.976563.71875 1.4375.324219.421875.671875.820313 1.042969 1.203125.734375.71875 1.601563 1.289062 2.558594 1.679688.949219.445312 1.988281.667968 3.039062.636718.535157-.011718 1.070313-.066406 1.601563-.15625 1.023437-.222656 2-.632812 2.878906-1.203125.417969-.292969.820312-.613281 1.199219-.957031.367187-.359375.691406-.765625.960937-1.203125.296875-.460937.5625-.941406.800782-1.4375.167968-.46875.304687-.953125.398437-1.441406.132813-.523438.1875-1.0625.160156-1.601563.015625-1.039062-.175781-2.070312-.558593-3.039062-.4375-.972656-1.03125-1.863282-1.761719-2.640625zm0 0"/><path d="m39.28125 52.230469c-.382812-.367188-.78125-.714844-1.203125-1.039063-.460937-.269531-.941406-.511718-1.4375-.71875l-1.441406-.480468c-1.558594-.328126-3.179688-.160157-4.640625.480468-.988282.402344-1.886719 1.003906-2.636719 1.757813-1.453125 1.507812-2.28125 3.507812-2.320313 5.601562.011719.535157.066407 1.070313.160157 1.601563.222656 1.023437.628906 2 1.199219 2.878906l.960937 1.199219c.773437.730469 1.664063 1.324219 2.636719 1.761719.96875.382812 2 .574218 3.042968.558593.535157.027344 1.074219-.027343 1.597657-.160156.492187-.097656.972656-.230469 1.441406-.398437.496094-.238282.976563-.503907 1.4375-.800782.441406-.269531.84375-.59375 1.203125-.960937.34375-.378907.664062-.78125.957031-1.199219.574219-.878906.980469-1.855469 1.203125-2.878906.089844-.53125.144532-1.066406.160156-1.601563.027344-1.050781-.191406-2.089843-.640624-3.039062-.390626-.957031-.960938-1.824219-1.679688-2.5625zm0 0"/><path d="m73.199219 52.230469c-.378907-.367188-.78125-.714844-1.199219-1.039063-.4375-.269531-.890625-.511718-1.359375-.71875-.480469-.160156-1.039063-.320312-1.519531-.480468-1.558594-.324219-3.179688-.15625-4.640625.480468-1.925781.855469-3.464844 2.394532-4.320313 4.320313-.410156.960937-.628906 1.992187-.640625 3.039062.015625.535157.066407 1.070313.160157 1.601563.160156.476562.320312 1.039062.480468 1.519531.207032.46875.449219.921875.71875 1.359375.324219.417969.671875.820312 1.042969 1.199219.730469.746093 1.597656 1.34375 2.558594 1.761719.964843.382812 2 .574218 3.039062.558593.539063.027344 1.078125-.027343 1.601563-.160156.515625-.09375 1.023437-.230469 1.519531-.398437.46875-.238282.925781-.503907 1.359375-.800782.871094-.550781 1.609375-1.289062 2.160156-2.160156.296875-.4375.5625-.890625.800782-1.359375.167968-.496094.304687-1.003906.398437-1.519531.132813-.523438.1875-1.0625.160156-1.601563.015625-1.039062-.175781-2.074219-.558593-3.039062-.417969-.960938-1.015626-1.828125-1.761719-2.5625zm0 0"/><path d="m77.121094 43.992188c.238281.480468.480468.878906.71875 1.359374.324218.417969.671875.820313 1.039062 1.199219.34375.386719.75.710938 1.199219.960938.425781.3125.882813.582031 1.363281.800781.496094.171875 1.003906.304688 1.519532.398438.496093.132812 1.007812.1875 1.519531.160156 2.128906.023437 4.175781-.8125 5.679687-2.320313 1.519532-1.496093 2.355469-3.546875 2.320313-5.679687.027343-.511719-.027344-1.023438-.160157-1.519532-.085937-.519531-.21875-1.027343-.398437-1.519531-.4375-.972656-1.03125-1.863281-1.761719-2.640625-.734375-.722656-1.605468-1.292968-2.558594-1.679687-1.460937-.628907-3.082031-.796875-4.640624-.480469-.527344.085938-1.039063.25-1.519532.480469-.492187.160156-.953125.402343-1.363281.71875-.398437.320312-.878906.640625-1.199219.960937-1.492187 1.515625-2.324218 3.554688-2.320312 5.679688-.011719.535156.015625 1.070312.082031 1.601562.160156.480469.320313 1.039063.480469 1.519532zm0 0"/><path d="m95.839844 29.59375c.34375.382812.75.707031 1.199218.957031.4375.296875.890626.566407 1.359376.800781.496093.171876 1.003906.304688 1.523437.402344.519531.128906 1.058594.183594 1.597656.15625 2.105469.023438 4.128907-.816406 5.601563-2.316406.789062-.726562 1.394531-1.632812 1.757812-2.640625.410156-.964844.628906-1.996094.640625-3.042969-.023437-2.132812-.886719-4.171875-2.398437-5.679687-.738282-.71875-1.605469-1.289063-2.5625-1.679688-1.457032-.636719-3.078125-.804687-4.636719-.480469-1.027344.222657-2.003906.628907-2.882813 1.203126-.398437.320312-.878906.636718-1.199218.957031-1.492188 1.515625-2.324219 3.554687-2.320313 5.679687-.015625 1.042969.175781 2.074219.558594 3.042969.398437.992187.996094 1.890625 1.761719 2.640625zm0 0"/><path d="m58 71.753906c-.21875-.480468-.488281-.9375-.800781-1.363281-.25-.449219-.574219-.855469-.960938-1.199219-.378906-.367187-.777343-.714844-1.199219-1.039062-.480468-.242188-.878906-.480469-1.359374-.71875-.480469-.242188-1.039063-.320313-1.519532-.480469-2.644531-.457031-5.347656.375-7.28125 2.238281-.320312.320313-.640625.800782-.957031 1.199219-.320313.410156-.5625.871094-.722656 1.363281-.230469.480469-.390625.992188-.480469 1.519532-.089844.5-.144531 1.007812-.160156 1.519531.003906 1.070312.222656 2.132812.640625 3.117187.386719.957032.960937 1.824219 1.679687 2.5625.777344.730469 1.667969 1.324219 2.640625 1.757813.492188.183593 1.003907.316406 1.519531.402343.496094.132813 1.007813.183594 1.519532.160157 2.132812.035156 4.1875-.800781 5.679687-2.320313 1.507813-1.503906 2.34375-3.550781 2.320313-5.679687.027344-.511719-.027344-1.027344-.160156-1.519531-.09375-.515626-.226563-1.023438-.398438-1.519532zm0 0"/><path d="m41.039062 88.710938c-.234374-.46875-.503906-.921876-.800781-1.359376-.246093-.453124-.570312-.855468-.957031-1.199218-.75-.765625-1.648438-1.363282-2.640625-1.761719-3-1.183594-6.417969-.496094-8.71875 1.761719-.320313.320312-.640625.800781-.960937 1.199218-.570313.878907-.976563 1.855469-1.199219 2.878907-.09375.53125-.148438 1.066406-.160157 1.601562.039063 2.09375.867188 4.09375 2.320313 5.601563 1.503906 1.511718 3.542969 2.375 5.679687 2.398437 1.042969-.011719 2.078126-.230469 3.039063-.640625 1.007813-.367187 1.914063-.96875 2.640625-1.757812 1.5-1.476563 2.339844-3.496094 2.320312-5.601563.023438-.539062-.027343-1.078125-.160156-1.601562-.097656-.515625-.230468-1.023438-.402344-1.519531zm0 0"/><path d="m101.519531 99.832031c1.046875-.011719 2.078125-.230469 3.039063-.640625 1.925781-.855468 3.464844-2.394531 4.320312-4.320312.410156-.960938.628906-1.992188.640625-3.039063.007813-2.140625-.859375-4.191406-2.398437-5.679687-1.890625-1.875-4.589844-2.683594-7.199219-2.160156-.519531.09375-1.027344.230468-1.523437.398437-.476563.242187-.878907.480469-1.359376.722656-.847656.636719-1.601562 1.390625-2.238281 2.238281-.242187.480469-.480469.878907-.722656 1.359376-.167969.496093-.300781 1.003906-.398437 1.519531-.132813.523437-.1875 1.0625-.160157 1.601562-.019531 2.105469.816407 4.125 2.320313 5.601563 1.488281 1.539062 3.539062 2.40625 5.679687 2.398437zm0 0"/><path d="m112.800781 80.472656c.746094.765625 1.644531 1.363282 2.640625 1.757813.964844.386719 2 .578125 3.039063.5625 2.125.003906 4.167969-.828125 5.679687-2.320313.722656-.738281 1.292969-1.605468 1.679688-2.5625.410156-.988281.628906-2.046875.640625-3.117187-.015625-2.097657-.847657-4.105469-2.320313-5.601563-2.3125-2.242187-5.71875-2.929687-8.71875-1.757812-.996094.394531-1.894531.992187-2.640625 1.757812-1.503906 1.472656-2.339843 3.496094-2.320312 5.601563-.023438 1.066406.167969 2.125.558593 3.117187.417969.960938 1.015626 1.828125 1.761719 2.5625zm0 0"/><path d="m132.398438 65.273438c.96875.382812 2 .574218 3.042968.558593 3.214844-.011719 6.109375-1.949219 7.347656-4.917969 1.238282-2.964843.582032-6.386718-1.667968-8.683593-2.3125-2.242188-5.71875-2.929688-8.722656-1.757813-1.007813.363282-1.914063.96875-2.636719 1.757813-3.101563 3.121093-3.101563 8.160156 0 11.28125.746093.765625 1.644531 1.363281 2.636719 1.761719zm0 0"/><path d="m100.480469 132.792969c1.070312-.011719 2.128906-.230469 3.121093-.640625.953126-.386719 1.824219-.957032 2.558594-1.679688 1.492188-1.515625 2.324219-3.554687 2.320313-5.679687.015625-1.042969-.175781-2.074219-.558594-3.039063-.398437-.996094-.996094-1.894531-1.761719-2.640625-1.480468-1.53125-3.515625-2.390625-5.640625-2.390625s-4.160156.859375-5.640625 2.390625c-.765625.746094-1.363281 1.644531-1.757812 2.640625-.410156.960938-.628906 1.992188-.640625 3.039063.03125 4.40625 3.59375 7.96875 8 8zm0 0"/></g><path d="m89.199219 136.070312c-3.175781-2.960937-8.101563-2.960937-11.277344 0-.792969.726563-1.394531 1.632813-1.761719 2.640626-.410156.960937-.628906 1.996093-.640625 3.042968-.019531 3.25 1.929688 6.1875 4.933594 7.433594 3 1.246094 6.457031.550781 8.746094-1.753906 1.492187-1.515625 2.328125-3.554688 2.320312-5.679688.015625-1.042968-.175781-2.074218-.558593-3.042968-.394532-.992188-.996094-1.890626-1.761719-2.640626zm0 0" fill="#8cb5e5"/><path d="m117.519531 115.832031c1.046875-.011719 2.078125-.230469 3.039063-.640625 1.925781-.855468 3.464844-2.394531 4.320312-4.320312.410156-.960938.628906-1.992188.640625-3.039063.007813-2.140625-.859375-4.191406-2.398437-5.679687-1.890625-1.875-4.589844-2.683594-7.199219-2.160156-.519531.09375-1.027344.230468-1.523437.398437-.476563.242187-.878907.480469-1.359376.722656-.847656.636719-1.601562 1.390625-2.238281 2.238281-.242187.480469-.480469.878907-.722656 1.359376-.167969.496093-.300781 1.003906-.398437 1.519531-.132813.523437-.1875 1.0625-.160157 1.601562-.019531 2.105469.816407 4.125 2.320313 5.601563 1.488281 1.539062 3.539062 2.40625 5.679687 2.398437zm0 0" fill="#9bc9ff"/><path d="m128.800781 96.472656c.746094.765625 1.644531 1.363282 2.640625 1.757813.964844.386719 2 .578125 3.039063.5625 2.125.003906 4.167969-.828125 5.679687-2.320313.722656-.738281 1.292969-1.605468 1.679688-2.5625.410156-.988281.628906-2.046875.640625-3.117187-.015625-2.097657-.847657-4.105469-2.320313-5.601563-2.3125-2.242187-5.71875-2.929687-8.71875-1.757812-.996094.394531-1.894531.992187-2.640625 1.757812-1.503906 1.472656-2.339843 3.496094-2.320312 5.601563-.023438 1.066406.167969 2.125.558593 3.117187.417969.960938 1.015626 1.828125 1.761719 2.5625zm0 0" fill="#9bc9ff"/><path d="m148.398438 81.273438c.96875.382812 2 .574218 3.042968.558593 3.214844-.011719 6.109375-1.949219 7.347656-4.917969 1.238282-2.964843.582032-6.386718-1.667968-8.683593-2.3125-2.242188-5.71875-2.929688-8.722656-1.757813-1.007813.363282-1.914063.96875-2.636719 1.757813-3.101563 3.121093-3.101563 8.160156 0 11.28125.746093.765625 1.644531 1.363281 2.636719 1.761719zm0 0" fill="#9bc9ff"/><path d="m53.800781 318.625c-3.433593.980469-5.800781 4.117188-5.800781 7.6875v84.449219c-4.84375-2.882813-10.367188-4.417969-16-4.449219-17.671875 0-32 14.328125-32 32s14.328125 32 32 32 32-14.328125 32-32v-73.953125l48-13.597656v-48.769531zm0 0" fill="#5eac24"/><path d="m172.800781 287.910156c-2.003906-1.507812-4.601562-1.992187-7.015625-1.300781l-53.785156 15.382813v48.742187l48-13.597656v41.648437c-4.839844-2.890625-10.363281-4.433594-16-4.472656-17.671875 0-32 14.328125-32 32s14.328125 32 32 32 32-14.328125 32-32v-112c0-2.519531-1.1875-4.890625-3.199219-6.402344zm0 0" fill="#6db438"/><path d="m373.472656 54.71875c-3.269531 1.089844-5.472656 4.148438-5.472656 7.59375v68.449219c-4.84375-2.882813-10.367188-4.417969-16-4.449219-17.671875 0-32 14.328125-32 32s14.328125 32 32 32 32-14.328125 32-32v-90.234375l40-13.335937v-16.863282zm0 0" fill="#ff3051"/><path d="m476.671875 23.824219c-2.082031-1.503907-4.761719-1.914063-7.199219-1.105469l-45.472656 15.160156v16.863282l40-13.335938v57.355469c-4.84375-2.882813-10.367188-4.417969-16-4.449219-17.671875 0-32 14.328125-32 32s14.328125 32 32 32 32-14.328125 32-32v-96c0-2.574219-1.242188-4.988281-3.328125-6.488281zm0 0" fill="#ff4361"/></svg>