<svg height="496pt" viewBox="0 0 496 496" width="496pt" xmlns="http://www.w3.org/2000/svg"><path d="m376 16v42.800781c-5.039062-1.839843-10.398438-2.800781-16-2.800781s-10.960938.960938-16 2.800781v-42.800781c0-4.398438 3.601562-8 8-8h16c4.398438 0 8 3.601562 8 8zm0 0" fill="#e6e9ed"/><path d="m376 104c0 8.835938-7.164062 16-16 16s-16-7.164062-16-16 7.164062-16 16-16 16 7.164062 16 16zm0 0" fill="#fcd770"/><path d="m408 104c0 8.558594-2.238281 16.558594-6.160156 23.441406v.078125c-6.71875 11.921875-18.398438 20.640625-32.160156 23.519531-3.121094.640626-6.320313.960938-9.679688.960938s-6.558594-.320312-9.679688-.960938c-13.761718-2.878906-25.441406-11.597656-32.160156-23.519531v-.078125c-3.921875-6.882812-6.160156-14.882812-6.160156-23.441406 0-20.878906 13.359375-38.71875 32-45.199219 5.039062-1.839843 10.398438-2.800781 16-2.800781s10.960938.960938 16 2.800781c18.640625 6.480469 32 24.320313 32 45.199219zm-32 0c0-8.800781-7.199219-16-16-16s-16 7.199219-16 16 7.199219 16 16 16 16-7.199219 16-16zm0 0" fill="#b4dd7f"/><path d="m440 328h-96v96h112v-96zm0-48.320312c4-.640626 7.601562-2.558594 10.398438-5.28125 3.441406-3.519532 5.601562-8.320313 5.601562-13.597657v-.878906c0-2.5625-.480469-5.121094-1.519531-7.523437l-28.800781-68.398438h62.320312v304h-416v-64h-64v-240h286.320312l-13.441406 32h-240.878906v176h272v-150l14.878906-35.28125c9.679688 5.839844 20.960938 9.28125 33.121094 9.28125s23.441406-3.441406 33.121094-9.28125l25.917968 61.519531c3.039063 7.121094 10 11.761719 17.761719 11.761719 1.121094 0 2.160157-.078125 3.199219-.320312zm0 0" fill="#e6e9ed"/><path d="m456 328v96h-112v-96zm0 0" fill="#ff826e"/><path d="m456 259.921875v.878906c0 5.277344-2.160156 10.078125-5.601562 13.597657-2.796876 2.722656-6.398438 4.640624-10.398438 5.28125-1.039062.242187-2.078125.320312-3.199219.320312-7.761719 0-14.722656-4.640625-17.761719-11.761719l-25.917968-61.519531-23.441406-55.679688c13.761718-2.878906 25.441406-11.597656 32.160156-23.519531l23.839844 56.480469 28.800781 68.398438c1.039062 2.402343 1.519531 4.960937 1.519531 7.523437zm0 0" fill="#b4dd7f"/><path d="m369.679688 151.039062 23.441406 55.679688c-9.679688 5.839844-20.960938 9.28125-33.121094 9.28125s-23.441406-3.441406-33.121094-9.28125l23.441406-55.679688c3.121094.640626 6.320313.960938 9.679688.960938s6.558594-.320312 9.679688-.960938zm0 0" fill="#e6e9ed"/><path d="m350.320312 151.039062-23.441406 55.679688-14.878906 35.28125-11.039062 26.238281c-3.039063 7.121094-10 11.761719-17.761719 11.761719-1.121094 0-2.160157-.078125-3.199219-.320312-9.039062-1.519532-16-9.441407-16-18.878907v-.878906c0-2.5625.480469-5.121094 1.519531-7.523437l15.359375-36.398438 13.441406-32 23.839844-56.480469c6.71875 11.921875 18.398438 20.640625 32.160156 23.519531zm0 0" fill="#b4dd7f"/><path d="m280 279.679688c1.039062.242187 2.078125.320312 3.199219.320312 7.761719 0 14.722656-4.640625 17.761719-11.761719l11.039062-26.238281v150h-144v-32h-40v-48h-88v-32h48c0-8.800781 3.601562-16.800781 9.359375-22.640625 5.839844-5.757813 13.839844-9.359375 22.640625-9.359375v-32h32v72h80v-72h48.878906l-15.359375 36.398438c-1.039062 2.402343-1.519531 4.960937-1.519531 7.523437v.878906c0 9.4375 6.960938 17.359375 16 18.878907zm0 0" fill="#ffeaa7"/><path d="m280 336c0 13.253906-10.746094 24-24 24s-24-10.746094-24-24 10.746094-24 24-24 24 10.746094 24 24zm0 0" fill="#e6e9ed"/><path d="m232 424h32v32h-32zm0 0" fill="#fcd770"/><path d="m200 424h32v32h-32zm0 0" fill="#fcd770"/><path d="m152 216h80v72h-80zm0 0" fill="#b4dd7f"/><g fill="#fcd770"><path d="m232 136v48h-80v-176h80zm0 0"/><path d="m168 424h32v32h-32zm0 0"/><path d="m136 424h32v32h-32zm0 0"/></g><path d="m168 360v32h-128v-80h88v48zm0 0" fill="#b4dd7f"/><path d="m104 424h32v32h-32zm0 0" fill="#fcd770"/><path d="m120 216v32c-8.800781 0-16.800781 3.601562-22.640625 9.359375-5.757813 5.839844-9.359375 13.839844-9.359375 22.640625h-48v-64zm0 0" fill="#b4dd7f"/><path d="m88 72h32v112h-32zm0 0" fill="#ff826e"/><path d="m88 24 32 48h-64zm0 0" fill="#aab2bd"/><path d="m56 72h32v112h-32zm0 0" fill="#fcd770"/><path d="m72 424v64l-64-64zm0 0" fill="#ff826e"/><path d="m360 128c13.230469 0 24-10.769531 24-24s-10.769531-24-24-24-24 10.769531-24 24 10.769531 24 24 24zm0-32c4.40625 0 8 3.59375 8 8s-3.59375 8-8 8-8-3.59375-8-8 3.59375-8 8-8zm0 0"/><path d="m431 176-20.335938-48.296875c3.382813-7.207031 5.335938-15.222656 5.335938-23.703125 0-22.28125-13.113281-41.511719-32-50.519531v-37.480469c0-8.824219-7.175781-16-16-16h-16c-8.824219 0-16 7.175781-16 16v37.480469c-18.886719 9.007812-32 28.238281-32 50.519531 0 8.480469 1.953125 16.496094 5.335938 23.703125l-20.335938 48.296875h-49v-176h-96v176h-16v-106.425781l-40-60-40 60v106.425781h-48v251.3125l68.6875 68.6875h427.3125v-320zm16.121094 79.535156c.582031 1.375.878906 2.839844.878906 4.34375v.882813c0 6.199219-5.039062 11.238281-11.230469 11.238281-4.53125 0-8.59375-2.695312-10.355469-6.863281l-45.917968-109.074219c7.328125-2.894531 13.910156-7.261719 19.359375-12.78125zm.878906 80.464844v80h-96v-80zm-88-176c1.585938 0 3.136719-.105469 4.6875-.238281l18.191406 43.207031c-14.453125 6.429688-31.3125 6.429688-45.765625 0l18.191407-43.207031c1.558593.132812 3.109374.238281 4.695312.238281zm-8-144h16v32.640625c-2.625-.375-5.28125-.640625-8-.640625s-5.375.265625-8 .640625zm8 48c22.054688 0 40 17.945312 40 40s-17.945312 40-40 40-40-17.945312-40-40 17.945312-40 40-40zm-20.496094 92.0625-45.917968 109.066406c-1.761719 4.175782-5.824219 6.871094-10.355469 6.871094-6.191407 0-11.230469-5.039062-11.230469-11.230469v-.882812c0-1.503907.296875-2.964844.878906-4.351563l47.265625-112.246094c5.441407 5.511719 12.03125 9.878907 19.359375 12.773438zm-291.503906 163.9375h72v48h40v16h-112zm88 32v-48h-88v-16h48v-8c0-13.230469 10.769531-24 24-24h8v-32h16v72h96v-72h28.792969l-10.65625 25.3125c-1.417969 3.359375-2.136719 6.910156-2.136719 10.566406v.882813c0 11 6.59375 20.445312 16 24.742187v22.945313c-4.726562-2.753907-10.144531-4.449219-16-4.449219-17.648438 0-32 14.351562-32 32s14.351562 32 32 32 32-14.351562 32-32v-48.464844c6.28125-1.109375 11.929688-4.351562 16-9.167968v105.632812h-128v-32zm-88-80v-48h64v16.808594c-15.648438 3.183594-28.007812 15.542968-31.191406 31.191406zm112-48h64v56h-64zm112 112c0 8.824219-7.175781 16-16 16s-16-7.175781-16-16 7.175781-16 16-16 16 7.175781 16 16zm-112-320h64v16h-32v16h32v16h-16v16h16v16h-32v16h32v16h-16v16h16v32h-64zm-64 160v-96h16v96zm9.054688-112h-34.109376l17.054688-25.574219zm-41.054688 16h16v96h-16zm0 388.6875-36.6875-36.6875h36.6875zm416 11.3125h-400v-64h-64v-224h266.265625l-6.738281 16h-243.527344v192h288v-156.375l10.894531-25.871094c9.167969 4.078125 19.066407 6.246094 29.105469 6.246094s19.9375-2.167969 29.105469-6.246094l22.566406 53.589844c3.632813 8.625 11.335937 14.601562 20.328125 16.191406v32.464844h-96v112h128v-112h-16v-34.496094c9.40625-4.296875 16-13.742187 16-24.742187v-.882813c0-3.65625-.71875-7.207031-2.136719-10.566406l-24.128906-57.3125h42.265625zm0 0"/><path d="m96 464h176v-48h-176zm96-16h-16v-16h16zm16-16h16v16h-16zm-48 16h-16v-16h16zm96 0h-16v-16h16zm-144-16h16v16h-16zm0 0"/><path d="m288 448h176v16h-176zm0 0"/></svg>