<?xml version="1.0"?>
<svg xmlns="http://www.w3.org/2000/svg" viewBox="0 0 64 64" width="512" height="512"><g id="Filled_outline" data-name="Filled outline"><rect x="3" y="28" width="58" height="27" style="fill:#67c086"/><rect x="12" y="40" width="4" height="8" style="fill:#113142"/><polygon points="12 40 12 48 14 48 14 55 8 55 8 40 12 40" style="fill:#f4f4e6"/><polygon points="16 40 16 48 14 48 14 55 20 55 20 40 16 40" style="fill:#d8d8d2"/><rect x="24" y="40" width="4" height="8" style="fill:#113142"/><polygon points="24 40 24 48 26 48 26 55 20 55 20 40 24 40" style="fill:#f4f4e6"/><polygon points="28 40 28 48 26 48 26 55 32 55 32 40 28 40" style="fill:#d8d8d2"/><rect x="36" y="40" width="4" height="8" style="fill:#113142"/><polygon points="36 40 36 48 38 48 38 55 32 55 32 40 36 40" style="fill:#f4f4e6"/><polygon points="40 40 40 48 38 48 38 55 44 55 44 40 40 40" style="fill:#d8d8d2"/><rect x="48" y="40" width="4" height="8" style="fill:#113142"/><polygon points="48 40 48 48 50 48 50 55 44 55 44 40 48 40" style="fill:#f4f4e6"/><polygon points="52 40 52 48 50 48 50 55 56 55 56 40 52 40" style="fill:#d8d8d2"/><rect x="25" y="32" width="14" height="4" style="fill:#fef59c"/><rect x="43" y="32" width="4" height="4" style="fill:#fef59c"/><rect x="51" y="32" width="4" height="4" style="fill:#fef59c"/><rect x="9" y="32" width="4" height="4" style="fill:#fef59c"/><rect x="17" y="32" width="4" height="4" style="fill:#fef59c"/><path d="M26,16.184V7.612L15,11.279v6.905a3,3,0,1,0,2,0V16.72l7-2.333v1.8a3,3,0,1,0,2,0ZM16,22a1,1,0,1,1,1-1A1,1,0,0,1,16,22Zm1-7.387V12.721l7-2.333V12.28ZM25,20a1,1,0,1,1,1-1A1,1,0,0,1,25,20Z" style="fill:#f98c96"/><path d="M49,12.659V6.483l-9,3.858v8.843a3,3,0,1,0,2,0V15.659Zm-7-1,5-2.142v1.824l-5,2.142ZM41,23a1,1,0,1,1,1-1A1,1,0,0,1,41,23Z" style="fill:#f98c96"/><circle cx="7" cy="10" r="2" style="fill:#f98c96"/><circle cx="56" cy="19" r="2" style="fill:#f98c96"/><path d="M2,56H62V27H2Zm11-2H9V41h2v8h2Zm0-7V41h2v6Zm6,7H15V49h2V41h2Zm6,0H21V41h2v8h2Zm0-7V41h2v6Zm6,7H27V49h2V41h2Zm6,0H33V41h2v8h2Zm0-7V41h2v6Zm6,7H39V49h2V41h2Zm6,0H45V41h2v8h2Zm0-7V41h2v6Zm6,7H51V49h2V41h2ZM4,29H60V54H57V39H7V54H4Z"/><path d="M40,31H24v6H40Zm-2,4H26V33H38Z"/><path d="M48,31H42v6h6Zm-2,4H44V33h2Z"/><path d="M56,31H50v6h6Zm-2,4H52V33h2Z"/><path d="M14,31H8v6h6Zm-2,4H10V33h2Z"/><path d="M22,31H16v6h6Zm-2,4H18V33h2Z"/><path d="M22,19a3,3,0,1,0,4-2.816V7.612L15,11.279v6.905a3,3,0,1,0,2,0V16.72l7-2.333v1.8A3,3,0,0,0,22,19Zm-6,3a1,1,0,1,1,1-1A1,1,0,0,1,16,22Zm1-7.387V12.721l7-2.333V12.28ZM25,18a1,1,0,1,1-1,1A1,1,0,0,1,25,18Z"/><path d="M49,12.659V6.483l-9,3.858v8.843a3,3,0,1,0,2,0V15.659Zm-7-1,5-2.142v1.824l-5,2.142ZM41,23a1,1,0,1,1,1-1A1,1,0,0,1,41,23Z"/><path d="M7,13a3,3,0,1,0-3-3A3,3,0,0,0,7,13ZM7,9a1,1,0,1,1-1,1A1,1,0,0,1,7,9Z"/><path d="M56,22a3,3,0,1,0-3-3A3,3,0,0,0,56,22Zm0-4a1,1,0,1,1-1,1A1,1,0,0,1,56,18Z"/></g></svg>
